G04 #@! TF.GenerationSoftware,KiCad,Pcbnew,(5.0.0)*
G04 #@! TF.CreationDate,2018-08-31T01:49:10-05:00*
G04 #@! TF.ProjectId,OSHWA Addon,4F53485741204164646F6E2E6B696361,rev?*
G04 #@! TF.SameCoordinates,Original*
G04 #@! TF.FileFunction,Copper,L2,Bot,Signal*
G04 #@! TF.FilePolarity,Positive*
%FSLAX46Y46*%
G04 Gerber Fmt 4.6, Leading zero omitted, Abs format (unit mm)*
G04 Created by KiCad (PCBNEW (5.0.0)) date 08/31/18 01:49:10*
%MOMM*%
%LPD*%
G01*
G04 APERTURE LIST*
G04 #@! TA.AperFunction,ComponentPad*
%ADD10R,1.700000X1.700000*%
G04 #@! TD*
G04 #@! TA.AperFunction,ComponentPad*
%ADD11O,1.700000X1.700000*%
G04 #@! TD*
G04 #@! TA.AperFunction,ComponentPad*
%ADD12R,1.800000X1.800000*%
G04 #@! TD*
G04 #@! TA.AperFunction,ComponentPad*
%ADD13C,1.800000*%
G04 #@! TD*
G04 #@! TA.AperFunction,ComponentPad*
%ADD14C,1.600000*%
G04 #@! TD*
G04 #@! TA.AperFunction,ComponentPad*
%ADD15O,1.600000X1.600000*%
G04 #@! TD*
G04 #@! TA.AperFunction,Conductor*
%ADD16C,1.000000*%
G04 #@! TD*
G04 #@! TA.AperFunction,Conductor*
%ADD17C,0.254000*%
G04 #@! TD*
%ADD18C,0.254000*%
G04 APERTURE END LIST*
D10*
G04 #@! TO.P,J1,1*
G04 #@! TO.N,Net-(J1-Pad1)*
X18730000Y-27730000D03*
D11*
G04 #@! TO.P,J1,2*
G04 #@! TO.N,Net-(J1-Pad2)*
X21270000Y-27730000D03*
G04 #@! TO.P,J1,3*
G04 #@! TO.N,Net-(D1-Pad1)*
X18730000Y-30270000D03*
G04 #@! TO.P,J1,4*
G04 #@! TO.N,Net-(J1-Pad4)*
X21270000Y-30270000D03*
G04 #@! TD*
D12*
G04 #@! TO.P,D1,1*
G04 #@! TO.N,Net-(D1-Pad1)*
X25255115Y-10622036D03*
D13*
G04 #@! TO.P,D1,2*
G04 #@! TO.N,Net-(D1-Pad2)*
X22715115Y-10622036D03*
G04 #@! TD*
D14*
G04 #@! TO.P,R1,1*
G04 #@! TO.N,Net-(J1-Pad1)*
X7909315Y-20296430D03*
D15*
G04 #@! TO.P,R1,2*
G04 #@! TO.N,Net-(D1-Pad2)*
X7909315Y-12676430D03*
G04 #@! TD*
D16*
G04 #@! TO.N,Net-(D1-Pad2)*
X7909315Y-12676430D02*
X16220000Y-7610000D01*
X16220000Y-7610000D02*
X22715115Y-10622036D01*
G04 #@! TO.N,Net-(J1-Pad1)*
X18730000Y-27730000D02*
X7909315Y-20296430D01*
G04 #@! TD*
D17*
G04 #@! TO.N,Net-(D1-Pad1)*
X14957301Y-282214D02*
X14957302Y-282214D01*
X13497148Y-523514D02*
X16749140Y-523514D01*
X12826468Y-764814D02*
X17373466Y-764814D01*
X12304995Y-1006114D02*
X17860808Y-1006114D01*
X11931552Y-1247414D02*
X18276547Y-1247414D01*
X11569050Y-1488714D02*
X18599881Y-1488714D01*
X11299820Y-1730014D02*
X18896469Y-1730014D01*
X11030591Y-1971314D02*
X19160088Y-1971314D01*
X10805383Y-2212614D02*
X19376356Y-2212614D01*
X10609064Y-2453914D02*
X19592624Y-2453914D01*
X28561952Y-2453914D02*
X29827187Y-2453914D01*
X10412746Y-2695214D02*
X19771488Y-2695214D01*
X27937664Y-2695214D02*
X30484806Y-2695214D01*
X10255634Y-2936514D02*
X19927404Y-2936514D01*
X27555015Y-2936514D02*
X30848015Y-2936514D01*
X10115580Y-3177814D02*
X20083320Y-3177814D01*
X27299078Y-3177814D02*
X31118494Y-3177814D01*
X9975527Y-3419114D02*
X20216031Y-3419114D01*
X27086487Y-3419114D02*
X31343848Y-3419114D01*
X9856795Y-3660414D02*
X20322803Y-3660414D01*
X26914458Y-3660414D02*
X31497656Y-3660414D01*
X9763534Y-3901714D02*
X20429575Y-3901714D01*
X26789101Y-3901714D02*
X31637815Y-3901714D01*
X9670272Y-4143014D02*
X20534418Y-4143014D01*
X26680221Y-4143014D02*
X31731961Y-4143014D01*
X9577010Y-4384314D02*
X20598482Y-4384314D01*
X26610897Y-4384314D02*
X31816136Y-4384314D01*
X9523492Y-4625614D02*
X20662545Y-4625614D01*
X26554807Y-4625614D02*
X31859179Y-4625614D01*
X9471624Y-4866914D02*
X20726608Y-4866914D01*
X26528713Y-4866914D02*
X31900029Y-4866914D01*
X9419755Y-5108214D02*
X20778139Y-5108214D01*
X26520767Y-5108214D02*
X31895454Y-5108214D01*
X9379346Y-5349514D02*
X20809511Y-5349514D01*
X26510021Y-5349514D02*
X31890879Y-5349514D01*
X9366145Y-5590814D02*
X20840883Y-5590814D01*
X26449155Y-5590814D02*
X31844876Y-5590814D01*
X9352944Y-5832114D02*
X20902841Y-5832114D01*
X23105682Y-5832114D02*
X24880154Y-5832114D01*
X26276524Y-5832114D02*
X31792326Y-5832114D01*
X9339743Y-6073414D02*
X21070851Y-6073414D01*
X22245343Y-6073414D02*
X31701569Y-6073414D01*
X9347612Y-6314714D02*
X31596718Y-6314714D01*
X9372414Y-6556014D02*
X15792628Y-6556014D01*
X16644455Y-6556014D02*
X31446597Y-6556014D01*
X9397216Y-6797314D02*
X15372607Y-6797314D01*
X17165400Y-6797314D02*
X31279600Y-6797314D01*
X9422019Y-7038614D02*
X14976792Y-7038614D01*
X17685736Y-7038614D02*
X31036170Y-7038614D01*
X9479271Y-7279914D02*
X14580977Y-7279914D01*
X18206073Y-7279914D02*
X30736002Y-7279914D01*
X9543334Y-7521214D02*
X14185162Y-7521214D01*
X18726409Y-7521214D02*
X30310115Y-7521214D01*
X9607398Y-7762514D02*
X13789347Y-7762514D01*
X19246745Y-7762514D02*
X29380821Y-7762514D01*
X9671461Y-8003814D02*
X13393532Y-8003814D01*
X19767082Y-8003814D02*
X28660216Y-8003814D01*
X9695917Y-8245114D02*
X12997718Y-8245114D01*
X20287418Y-8245114D02*
X28509966Y-8245114D01*
X9637717Y-8486414D02*
X12601903Y-8486414D01*
X20807754Y-8486414D02*
X28464529Y-8486414D01*
X9471149Y-8727714D02*
X12206088Y-8727714D01*
X21328091Y-8727714D02*
X28496127Y-8727714D01*
X6787752Y-8969014D02*
X11810273Y-8969014D01*
X16171228Y-8969014D02*
X16452695Y-8969014D01*
X21848427Y-8969014D02*
X28571057Y-8969014D01*
X5685025Y-9210314D02*
X11414458Y-9210314D01*
X15775413Y-9210314D02*
X16973031Y-9210314D01*
X23318065Y-9210314D02*
X23977991Y-9210314D01*
X25092643Y-9210314D02*
X25417587Y-9210314D01*
X26532240Y-9210314D02*
X28645987Y-9210314D01*
X4994248Y-9451614D02*
X11018643Y-9451614D01*
X15379598Y-9451614D02*
X17493367Y-9451614D01*
X23715510Y-9451614D02*
X23779809Y-9451614D01*
X25128115Y-9451614D02*
X25382115Y-9451614D01*
X26730422Y-9451614D02*
X28720918Y-9451614D01*
X4428090Y-9692914D02*
X10622829Y-9692914D01*
X14983784Y-9692914D02*
X18013704Y-9692914D01*
X25128115Y-9692914D02*
X25382115Y-9692914D01*
X26790115Y-9692914D02*
X28774412Y-9692914D01*
X4004628Y-9934214D02*
X10227014Y-9934214D01*
X14587969Y-9934214D02*
X18534040Y-9934214D01*
X25128115Y-9934214D02*
X25382115Y-9934214D01*
X26790115Y-9934214D02*
X28806398Y-9934214D01*
X3601190Y-10175514D02*
X9831199Y-10175514D01*
X14192154Y-10175514D02*
X19054376Y-10175514D01*
X25128115Y-10175514D02*
X25382115Y-10175514D01*
X26790115Y-10175514D02*
X28838384Y-10175514D01*
X3260262Y-10416814D02*
X9435384Y-10416814D01*
X13796339Y-10416814D02*
X19574712Y-10416814D01*
X25128115Y-10416814D02*
X25382115Y-10416814D01*
X26709587Y-10416814D02*
X28866104Y-10416814D01*
X2958899Y-10658114D02*
X9039569Y-10658114D01*
X13400524Y-10658114D02*
X20095048Y-10658114D01*
X25108115Y-10658114D02*
X28857049Y-10658114D01*
X2657536Y-10899414D02*
X8643754Y-10899414D01*
X13004709Y-10899414D02*
X18274919Y-10899414D01*
X18619560Y-10899414D02*
X20615385Y-10899414D01*
X25128115Y-10899414D02*
X25382115Y-10899414D01*
X26781743Y-10899414D02*
X28847995Y-10899414D01*
X2417944Y-11140714D02*
X8247940Y-11140714D01*
X12608894Y-11140714D02*
X17746278Y-11140714D01*
X19009128Y-11140714D02*
X21135721Y-11140714D01*
X25128115Y-11140714D02*
X25382115Y-11140714D01*
X26790115Y-11140714D02*
X28838940Y-11140714D01*
X2188831Y-11382014D02*
X7286852Y-11382014D01*
X12213079Y-11382014D02*
X17263430Y-11382014D01*
X19145374Y-11382014D02*
X21376787Y-11382014D01*
X25128115Y-11382014D02*
X25382115Y-11382014D01*
X26790115Y-11382014D02*
X28801555Y-11382014D01*
X1959718Y-11623314D02*
X6930537Y-11623314D01*
X11817264Y-11623314D02*
X16503362Y-11623314D01*
X19208139Y-11623314D02*
X21545576Y-11623314D01*
X25128115Y-11623314D02*
X25382115Y-11623314D01*
X26782409Y-11623314D02*
X28750929Y-11623314D01*
X1767074Y-11864614D02*
X6719177Y-11864614D01*
X11421449Y-11864614D02*
X15099061Y-11864614D01*
X19268156Y-11864614D02*
X21811838Y-11864614D01*
X23618391Y-11864614D02*
X23820310Y-11864614D01*
X25128115Y-11864614D02*
X25382115Y-11864614D01*
X26689919Y-11864614D02*
X28700303Y-11864614D01*
X1593580Y-12105914D02*
X6587133Y-12105914D01*
X11025635Y-12105914D02*
X14799202Y-12105914D01*
X19328174Y-12105914D02*
X22306922Y-12105914D01*
X23123307Y-12105914D02*
X24105386Y-12105914D01*
X25020487Y-12105914D02*
X25489743Y-12105914D01*
X26404843Y-12105914D02*
X28634958Y-12105914D01*
X1420086Y-12347214D02*
X6509612Y-12347214D01*
X10629820Y-12347214D02*
X14683407Y-12347214D01*
X19428163Y-12347214D02*
X28539669Y-12347214D01*
X1249956Y-12588514D02*
X6476032Y-12588514D01*
X10234005Y-12588514D02*
X14660878Y-12588514D01*
X19528858Y-12588514D02*
X28444380Y-12588514D01*
X1122108Y-12829814D02*
X6482479Y-12829814D01*
X9838190Y-12829814D02*
X14720288Y-12829814D01*
X19629554Y-12829814D02*
X28341725Y-12829814D01*
X994260Y-13071114D02*
X6529470Y-13071114D01*
X9442375Y-13071114D02*
X14832491Y-13071114D01*
X19771802Y-13071114D02*
X28195306Y-13071114D01*
X866412Y-13312414D02*
X6622126Y-13312414D01*
X9196503Y-13312414D02*
X14945871Y-13312414D01*
X19924647Y-13312414D02*
X28048888Y-13312414D01*
X745485Y-13553714D02*
X6772904Y-13553714D01*
X9045725Y-13553714D02*
X15059250Y-13553714D01*
X20077491Y-13553714D02*
X27888866Y-13553714D01*
X657106Y-13795014D02*
X7010309Y-13795014D01*
X8808320Y-13795014D02*
X15172629Y-13795014D01*
X20288893Y-13795014D02*
X27679484Y-13795014D01*
X568727Y-14036314D02*
X7448829Y-14036314D01*
X8369800Y-14036314D02*
X15257970Y-14036314D01*
X20506550Y-14036314D02*
X27470102Y-14036314D01*
X480347Y-14277614D02*
X15333438Y-14277614D01*
X20756078Y-14277614D02*
X27207300Y-14277614D01*
X393137Y-14518914D02*
X15408906Y-14518914D01*
X21062177Y-14518914D02*
X26913024Y-14518914D01*
X340455Y-14760214D02*
X15484374Y-14760214D01*
X21401267Y-14760214D02*
X26559433Y-14760214D01*
X287772Y-15001514D02*
X15541435Y-15001514D01*
X21844780Y-15001514D02*
X26135548Y-15001514D01*
X235090Y-15242814D02*
X15582107Y-15242814D01*
X22447147Y-15242814D02*
X25527826Y-15242814D01*
X182407Y-15484114D02*
X15622778Y-15484114D01*
X23547163Y-15484114D02*
X24464952Y-15484114D01*
X154021Y-15725414D02*
X15663450Y-15725414D01*
X134962Y-15966714D02*
X15698186Y-15966714D01*
X115904Y-16208014D02*
X15705632Y-16208014D01*
X96845Y-16449314D02*
X15713078Y-16449314D01*
X88467Y-16690614D02*
X15720523Y-16690614D01*
X102313Y-16931914D02*
X15727969Y-16931914D01*
X116159Y-17173214D02*
X15710078Y-17173214D01*
X130005Y-17414514D02*
X15684578Y-17414514D01*
X143851Y-17655814D02*
X15659077Y-17655814D01*
X188452Y-17897114D02*
X15633577Y-17897114D01*
X235723Y-18138414D02*
X15601781Y-18138414D01*
X282994Y-18379714D02*
X15560287Y-18379714D01*
X330265Y-18621014D02*
X15578232Y-18621014D01*
X18818664Y-18621014D02*
X21133260Y-18621014D01*
X398368Y-18862314D02*
X7763536Y-18862314D01*
X8055095Y-18862314D02*
X15687271Y-18862314D01*
X17502223Y-18862314D02*
X22536876Y-18862314D01*
X480909Y-19103614D02*
X7111560Y-19103614D01*
X8707071Y-19103614D02*
X15967682Y-19103614D01*
X16661252Y-19103614D02*
X23309087Y-19103614D01*
X563449Y-19344914D02*
X6831435Y-19344914D01*
X8987195Y-19344914D02*
X23968370Y-19344914D01*
X645989Y-19586214D02*
X6658008Y-19586214D01*
X9160623Y-19586214D02*
X24505532Y-19586214D01*
X744660Y-19827514D02*
X6550315Y-19827514D01*
X9268316Y-19827514D02*
X24990293Y-19827514D01*
X865937Y-20068814D02*
X6491478Y-20068814D01*
X9582448Y-20068814D02*
X25393632Y-20068814D01*
X987214Y-20310114D02*
X6474315Y-20310114D01*
X9933696Y-20310114D02*
X25796971Y-20310114D01*
X1108490Y-20551414D02*
X6496921Y-20551414D01*
X10284945Y-20551414D02*
X26129040Y-20551414D01*
X1250868Y-20792714D02*
X6561650Y-20792714D01*
X10636194Y-20792714D02*
X26442486Y-20792714D01*
X1416611Y-21034014D02*
X6676293Y-21034014D01*
X10987442Y-21034014D02*
X26755931Y-21034014D01*
X1582353Y-21275314D02*
X6858803Y-21275314D01*
X11338691Y-21275314D02*
X27022781Y-21275314D01*
X1748095Y-21516614D02*
X7152518Y-21516614D01*
X11689940Y-21516614D02*
X27270135Y-21516614D01*
X1958841Y-21757914D02*
X8032264Y-21757914D01*
X12041188Y-21757914D02*
X27517488Y-21757914D01*
X2178284Y-21999214D02*
X8383513Y-21999214D01*
X12392437Y-21999214D02*
X27756007Y-21999214D01*
X2397727Y-22240514D02*
X8734761Y-22240514D01*
X12743686Y-22240514D02*
X27951476Y-22240514D01*
X2656780Y-22481814D02*
X9086010Y-22481814D01*
X13094934Y-22481814D02*
X28146945Y-22481814D01*
X2945208Y-22723114D02*
X9437259Y-22723114D01*
X13446183Y-22723114D02*
X28342414Y-22723114D01*
X3233635Y-22964414D02*
X9788507Y-22964414D01*
X13797432Y-22964414D02*
X28527725Y-22964414D01*
X3593422Y-23205714D02*
X10139756Y-23205714D01*
X14148680Y-23205714D02*
X28680326Y-23205714D01*
X3977850Y-23447014D02*
X10491004Y-23447014D01*
X14499929Y-23447014D02*
X28832927Y-23447014D01*
X4421804Y-23688314D02*
X10842253Y-23688314D01*
X14851178Y-23688314D02*
X28985528Y-23688314D01*
X4955827Y-23929614D02*
X11193502Y-23929614D01*
X15202426Y-23929614D02*
X29138129Y-23929614D01*
X5652475Y-24170914D02*
X11544750Y-24170914D01*
X15553675Y-24170914D02*
X29255313Y-24170914D01*
X6714937Y-24412214D02*
X9140017Y-24412214D01*
X9745831Y-24412214D02*
X11895999Y-24412214D01*
X15904924Y-24412214D02*
X29370975Y-24412214D01*
X10087804Y-24653514D02*
X12247248Y-24653514D01*
X16256173Y-24653514D02*
X29486638Y-24653514D01*
X10213853Y-24894814D02*
X12598496Y-24894814D01*
X16607421Y-24894814D02*
X29602301Y-24894814D01*
X10244661Y-25136114D02*
X12949745Y-25136114D01*
X16958670Y-25136114D02*
X29704955Y-25136114D01*
X10195593Y-25377414D02*
X13300994Y-25377414D01*
X17309919Y-25377414D02*
X29787616Y-25377414D01*
X10110443Y-25618714D02*
X13652242Y-25618714D01*
X17661167Y-25618714D02*
X29870277Y-25618714D01*
X10043569Y-25860014D02*
X14003491Y-25860014D01*
X18012416Y-25860014D02*
X29952939Y-25860014D01*
X9976695Y-26101314D02*
X14354739Y-26101314D01*
X18363665Y-26101314D02*
X30035600Y-26101314D01*
X9909820Y-26342614D02*
X14705988Y-26342614D01*
X19921681Y-26342614D02*
X20727933Y-26342614D01*
X21812068Y-26342614D02*
X30099827Y-26342614D01*
X9842946Y-26583914D02*
X15057237Y-26583914D01*
X20141758Y-26583914D02*
X20325692Y-26583914D01*
X22214309Y-26583914D02*
X30152041Y-26583914D01*
X9778909Y-26825214D02*
X15408485Y-26825214D01*
X22448522Y-26825214D02*
X30204255Y-26825214D01*
X9741596Y-27066514D02*
X15759734Y-27066514D01*
X22599183Y-27066514D02*
X30256469Y-27066514D01*
X9704283Y-27307814D02*
X16110983Y-27307814D01*
X22693752Y-27307814D02*
X30308683Y-27307814D01*
X9666970Y-27549114D02*
X16462231Y-27549114D01*
X22744370Y-27549114D02*
X30341856Y-27549114D01*
X9629657Y-27790414D02*
X16813480Y-27790414D01*
X22756234Y-27790414D02*
X30365132Y-27790414D01*
X9595010Y-28031714D02*
X17164728Y-28031714D01*
X22730296Y-28031714D02*
X30388408Y-28031714D01*
X9586203Y-28273014D02*
X17241928Y-28273014D01*
X22657098Y-28273014D02*
X30411684Y-28273014D01*
X9577396Y-28514314D02*
X17241928Y-28514314D01*
X22534598Y-28514314D02*
X30434960Y-28514314D01*
X9568589Y-28755614D02*
X17269698Y-28755614D01*
X22349360Y-28755614D02*
X30440712Y-28755614D01*
X9559783Y-28996914D02*
X17400689Y-28996914D01*
X22049982Y-28996914D02*
X30435699Y-28996914D01*
X9551964Y-29238214D02*
X17667378Y-29238214D01*
X22344296Y-29238214D02*
X30430686Y-29238214D01*
X9571421Y-29479514D02*
X17475937Y-29479514D01*
X22531300Y-29479514D02*
X30425673Y-29479514D01*
X9590877Y-29720814D02*
X17354651Y-29720814D01*
X22655227Y-29720814D02*
X30420660Y-29720814D01*
X9610333Y-29962114D02*
X17314385Y-29962114D01*
X22728425Y-29962114D02*
X30399764Y-29962114D01*
X9629789Y-30203414D02*
X18877000Y-30203414D01*
X22755627Y-30203414D02*
X30366323Y-30203414D01*
X9649245Y-30444714D02*
X17384665Y-30444714D01*
X18603000Y-30444714D02*
X18857000Y-30444714D01*
X22744977Y-30444714D02*
X30332882Y-30444714D01*
X9697200Y-30686014D02*
X17306457Y-30686014D01*
X18603000Y-30686014D02*
X18857000Y-30686014D01*
X22695623Y-30686014D02*
X30299441Y-30686014D01*
X9745459Y-30927314D02*
X17406152Y-30927314D01*
X18603000Y-30927314D02*
X18857000Y-30927314D01*
X22602481Y-30927314D02*
X30265999Y-30927314D01*
X9793718Y-31168614D02*
X17556588Y-31168614D01*
X18603000Y-31168614D02*
X18857000Y-31168614D01*
X19903411Y-31168614D02*
X20086413Y-31168614D01*
X22453586Y-31168614D02*
X30216562Y-31168614D01*
X9841977Y-31409914D02*
X17787334Y-31409914D01*
X18603000Y-31409914D02*
X18857000Y-31409914D01*
X19672665Y-31409914D02*
X20318170Y-31409914D01*
X22221829Y-31409914D02*
X30153752Y-31409914D01*
X9891016Y-31651214D02*
X18203213Y-31651214D01*
X18487927Y-31651214D02*
X18972072Y-31651214D01*
X19256786Y-31651214D02*
X20707586Y-31651214D01*
X21832413Y-31651214D02*
X30090942Y-31651214D01*
X9969464Y-31892514D02*
X30028132Y-31892514D01*
X10047913Y-32133814D02*
X29965322Y-32133814D01*
X10126362Y-32375114D02*
X29882343Y-32375114D01*
X10204811Y-32616414D02*
X29788311Y-32616414D01*
X10290164Y-32857714D02*
X29694280Y-32857714D01*
X10401200Y-33099014D02*
X29600248Y-33099014D01*
X10512236Y-33340314D02*
X29506216Y-33340314D01*
X10623271Y-33581614D02*
X29380380Y-33581614D01*
X10734307Y-33822914D02*
X29252132Y-33822914D01*
X10867618Y-34064214D02*
X29123883Y-34064214D01*
X11014965Y-34305514D02*
X28995635Y-34305514D01*
X11162311Y-34546814D02*
X28849561Y-34546814D01*
X11309658Y-34788114D02*
X28682538Y-34788114D01*
X11469300Y-35029414D02*
X28515515Y-35029414D01*
X11658570Y-35270714D02*
X28348492Y-35270714D01*
X11847840Y-35512014D02*
X28167887Y-35512014D01*
X12037110Y-35753314D02*
X27955225Y-35753314D01*
X12242036Y-35994614D02*
X27742564Y-35994614D01*
X12481739Y-36235914D02*
X27529903Y-36235914D01*
X12721442Y-36477214D02*
X27289152Y-36477214D01*
X12961146Y-36718514D02*
X27020311Y-36718514D01*
X13246708Y-36959814D02*
X26751470Y-36959814D01*
X13550170Y-37201114D02*
X26473941Y-37201114D01*
X13853632Y-37442414D02*
X26132000Y-37442414D01*
X14205934Y-37683714D02*
X25790059Y-37683714D01*
X14595259Y-37925014D02*
X25427628Y-37925014D01*
X14984584Y-38166314D02*
X24983389Y-38166314D01*
X15487600Y-38407614D02*
X24539150Y-38407614D01*
X16002950Y-38648914D02*
X23970417Y-38648914D01*
X16677318Y-38890214D02*
X23367424Y-38890214D01*
X17472992Y-39131514D02*
X22501768Y-39131514D01*
X18851700Y-39372814D02*
X21176766Y-39372814D01*
X31900239Y-4855797D02*
X31900239Y-4855797D01*
X31658939Y-3955854D02*
X31658939Y-6171519D01*
X31417639Y-3534879D02*
X31417639Y-6597855D01*
X31176339Y-3238314D02*
X31176339Y-6902713D01*
X30935039Y-2997643D02*
X30935039Y-7136663D01*
X30693739Y-2828142D02*
X30693739Y-7307269D01*
X30452439Y-2680880D02*
X30452439Y-7463456D01*
X30211139Y-2574021D02*
X30211139Y-7560628D01*
X30211139Y-26857023D02*
X30211139Y-31189444D01*
X29969839Y-2486025D02*
X29969839Y-7656721D01*
X29969839Y-25909346D02*
X29969839Y-32116458D01*
X29728539Y-2431707D02*
X29728539Y-7703866D01*
X29728539Y-25204958D02*
X29728539Y-32769798D01*
X29487239Y-2388412D02*
X29487239Y-7748650D01*
X29487239Y-24654766D02*
X29487239Y-33380557D01*
X29245939Y-2382152D02*
X29245939Y-7768048D01*
X29245939Y-24151356D02*
X29245939Y-33834564D01*
X29004639Y-2378134D02*
X29004639Y-7796900D01*
X29004639Y-23718532D02*
X29004639Y-34288571D01*
X28763339Y-2419441D02*
X28763339Y-7912416D01*
X28763339Y-9609377D02*
X28763339Y-11564161D01*
X28763339Y-23336977D02*
X28763339Y-34671379D01*
X28522039Y-2460747D02*
X28522039Y-8220414D01*
X28522039Y-8811158D02*
X28522039Y-12391857D01*
X28522039Y-22955422D02*
X28522039Y-35019987D01*
X28280739Y-2547637D02*
X28280739Y-12930318D01*
X28280739Y-22646977D02*
X28280739Y-35368596D01*
X28039439Y-2639847D02*
X28039439Y-13327984D01*
X28039439Y-22349100D02*
X28039439Y-35657758D01*
X27798139Y-2782786D02*
X27798139Y-13658270D01*
X27798139Y-22051224D02*
X27798139Y-35931554D01*
X27556839Y-2934796D02*
X27556839Y-13936354D01*
X27556839Y-21796301D02*
X27556839Y-36205350D01*
X27315539Y-3162296D02*
X27315539Y-14188860D01*
X27315539Y-21560906D02*
X27315539Y-36453529D01*
X27074239Y-3436295D02*
X27074239Y-14386720D01*
X27074239Y-21325512D02*
X27074239Y-36670110D01*
X26832939Y-3804563D02*
X26832939Y-14584581D01*
X26832939Y-21093296D02*
X26832939Y-36886690D01*
X26591639Y-4467165D02*
X26591639Y-9260534D01*
X26591639Y-10495036D02*
X26591639Y-10749036D01*
X26591639Y-11983538D02*
X26591639Y-14741880D01*
X26591639Y-20907536D02*
X26591639Y-37103270D01*
X26350339Y-5752379D02*
X26350339Y-9115582D01*
X26350339Y-10495036D02*
X26350339Y-10749036D01*
X26350339Y-12128491D02*
X26350339Y-14879242D01*
X26350339Y-20721776D02*
X26350339Y-37288336D01*
X26109039Y-5944933D02*
X26109039Y-9087036D01*
X26109039Y-10495036D02*
X26109039Y-10749036D01*
X26109039Y-12157036D02*
X26109039Y-15016604D01*
X26109039Y-20536015D02*
X26109039Y-37458616D01*
X25867739Y-6018471D02*
X25867739Y-9087036D01*
X25867739Y-10495036D02*
X25867739Y-10749036D01*
X25867739Y-12157036D02*
X25867739Y-15119424D01*
X25867739Y-20352450D02*
X25867739Y-37628896D01*
X25626439Y-6008166D02*
X25626439Y-9087036D01*
X25626439Y-10495036D02*
X25626439Y-10749036D01*
X25626439Y-12157036D02*
X25626439Y-15207017D01*
X25626439Y-20208091D02*
X25626439Y-37799176D01*
X25385139Y-5942386D02*
X25385139Y-9242762D01*
X25385139Y-10495036D02*
X25385139Y-10749036D01*
X25385139Y-12001310D02*
X25385139Y-15294609D01*
X25385139Y-20063732D02*
X25385139Y-37948092D01*
X25143839Y-5873114D02*
X25143839Y-9245786D01*
X25143839Y-9245786D02*
X25143839Y-10749036D01*
X25143839Y-10749036D02*
X25143839Y-15361338D01*
X25143839Y-19919373D02*
X25143839Y-38079161D01*
X24902539Y-5835492D02*
X24902539Y-9087036D01*
X24902539Y-12157036D02*
X24902539Y-15404976D01*
X24902539Y-19775014D02*
X24902539Y-38210229D01*
X24661239Y-5799068D02*
X24661239Y-9087036D01*
X24661239Y-12157036D02*
X24661239Y-15448615D01*
X24661239Y-19656159D02*
X24661239Y-38341297D01*
X24419939Y-5762644D02*
X24419939Y-9087036D01*
X24419939Y-12157036D02*
X24419939Y-15487939D01*
X24419939Y-19547764D02*
X24419939Y-38469028D01*
X24178639Y-5747485D02*
X24178639Y-9109699D01*
X24178639Y-12134372D02*
X24178639Y-15490259D01*
X24178639Y-19439369D02*
X24178639Y-38565589D01*
X23937339Y-5752185D02*
X23937339Y-9241786D01*
X23937339Y-12002286D02*
X23937339Y-15492580D01*
X23937339Y-19330974D02*
X23937339Y-38662150D01*
X23696039Y-5756885D02*
X23696039Y-9432143D01*
X23696039Y-11811929D02*
X23696039Y-15494900D01*
X23696039Y-19225546D02*
X23696039Y-38758711D01*
X23454739Y-5765428D02*
X23454739Y-9270109D01*
X23454739Y-11973964D02*
X23454739Y-15469230D01*
X23454739Y-19149510D02*
X23454739Y-38855273D01*
X23213439Y-5811528D02*
X23213439Y-9166977D01*
X23213439Y-12077096D02*
X23213439Y-15430368D01*
X23213439Y-19073474D02*
X23213439Y-38939359D01*
X22972139Y-5857628D02*
X22972139Y-9108089D01*
X22972139Y-12135984D02*
X22972139Y-15391507D01*
X22972139Y-18997437D02*
X22972139Y-39004511D01*
X22730839Y-5903728D02*
X22730839Y-9087036D01*
X22730839Y-12157036D02*
X22730839Y-15339662D01*
X22730839Y-18921401D02*
X22730839Y-27430075D01*
X22730839Y-28029926D02*
X22730839Y-29970075D01*
X22730839Y-30569926D02*
X22730839Y-39069663D01*
X22489539Y-5982036D02*
X22489539Y-9101833D01*
X22489539Y-12142238D02*
X22489539Y-15257286D01*
X22489539Y-18853292D02*
X22489539Y-26875194D01*
X22489539Y-28584807D02*
X22489539Y-29415194D01*
X22489539Y-31124807D02*
X22489539Y-39134815D01*
X22248239Y-6072331D02*
X22248239Y-9153950D01*
X22248239Y-12090121D02*
X22248239Y-15174911D01*
X22248239Y-18807304D02*
X22248239Y-26611760D01*
X22248239Y-28848241D02*
X22248239Y-29151760D01*
X22248239Y-31388241D02*
X22248239Y-39199967D01*
X22006939Y-6162626D02*
X22006939Y-9042523D01*
X22006939Y-11990171D02*
X22006939Y-15089740D01*
X22006939Y-18761316D02*
X22006939Y-26440079D01*
X22006939Y-31559922D02*
X22006939Y-39250079D01*
X21765639Y-6249165D02*
X21765639Y-8930623D01*
X21765639Y-11833744D02*
X21765639Y-14958457D01*
X21765639Y-18715328D02*
X21765639Y-26328531D01*
X21765639Y-31671470D02*
X21765639Y-39285753D01*
X21524339Y-6272249D02*
X21524339Y-8818723D01*
X21524339Y-11602077D02*
X21524339Y-14827174D01*
X21524339Y-18669340D02*
X21524339Y-26262866D01*
X21524339Y-31737135D02*
X21524339Y-39321428D01*
X21283039Y-6213426D02*
X21283039Y-8706823D01*
X21283039Y-11209030D02*
X21283039Y-14693022D01*
X21283039Y-18631724D02*
X21283039Y-26245000D01*
X21283039Y-31755000D02*
X21283039Y-39357102D01*
X21041739Y-6044715D02*
X21041739Y-8594922D01*
X21041739Y-11097130D02*
X21041739Y-14502803D01*
X21041739Y-18614469D02*
X21041739Y-26260296D01*
X21041739Y-31739703D02*
X21041739Y-39392776D01*
X20800439Y-5279730D02*
X20800439Y-8483022D01*
X20800439Y-10985230D02*
X20800439Y-14312585D01*
X20800439Y-18597214D02*
X20800439Y-26320619D01*
X20800439Y-31679380D02*
X20800439Y-39414137D01*
X20559139Y-4236124D02*
X20559139Y-8371122D01*
X20559139Y-10873330D02*
X20559139Y-14094617D01*
X20559139Y-18579959D02*
X20559139Y-26426139D01*
X20559139Y-31573860D02*
X20559139Y-39421339D01*
X20317839Y-3649194D02*
X20317839Y-8259222D01*
X20317839Y-10761430D02*
X20317839Y-13827105D01*
X20317839Y-18562704D02*
X20317839Y-26590358D01*
X20317839Y-31409641D02*
X20317839Y-39428542D01*
X20076539Y-3167318D02*
X20076539Y-8147322D01*
X20076539Y-10649530D02*
X20076539Y-13552212D01*
X20076539Y-18552297D02*
X20076539Y-26484080D01*
X20076539Y-31156582D02*
X20076539Y-39435744D01*
X19835239Y-2793876D02*
X19835239Y-8035422D01*
X19835239Y-10537630D02*
X19835239Y-13171265D01*
X19835239Y-18563296D02*
X19835239Y-26296410D01*
X19835239Y-31260012D02*
X19835239Y-39442947D01*
X19593939Y-2455381D02*
X19593939Y-7923522D01*
X19593939Y-10425729D02*
X19593939Y-12744471D01*
X19593939Y-18574294D02*
X19593939Y-26243301D01*
X19593939Y-31475553D02*
X19593939Y-39437624D01*
X19352639Y-2186151D02*
X19352639Y-7811622D01*
X19352639Y-10313829D02*
X19352639Y-12166234D01*
X19352639Y-18585293D02*
X19352639Y-26241928D01*
X19352639Y-31617213D02*
X19352639Y-39416555D01*
X19111339Y-1916922D02*
X19111339Y-7699722D01*
X19111339Y-10201929D02*
X19111339Y-11298002D01*
X19111339Y-18596291D02*
X19111339Y-26241928D01*
X19111339Y-31702809D02*
X19111339Y-39395485D01*
X18870039Y-1708510D02*
X18870039Y-7587821D01*
X18870039Y-10090029D02*
X18870039Y-11011499D01*
X18870039Y-18612593D02*
X18870039Y-26241928D01*
X18870039Y-30143000D02*
X18870039Y-30397000D01*
X18870039Y-31597658D02*
X18870039Y-39374416D01*
X18628739Y-1512192D02*
X18628739Y-7475921D01*
X18628739Y-9978129D02*
X18628739Y-10901694D01*
X18628739Y-18652149D02*
X18628739Y-26241928D01*
X18628739Y-30123000D02*
X18628739Y-39353346D01*
X18387439Y-1315873D02*
X18387439Y-7364021D01*
X18387439Y-9866229D02*
X18387439Y-10881478D01*
X18387439Y-18691706D02*
X18387439Y-26117647D01*
X18387439Y-30143000D02*
X18387439Y-30397000D01*
X18387439Y-31703960D02*
X18387439Y-39320724D01*
X18146139Y-1171723D02*
X18146139Y-7252121D01*
X18146139Y-9754329D02*
X18146139Y-10943425D01*
X18146139Y-18731263D02*
X18146139Y-25951880D01*
X18146139Y-30143000D02*
X18146139Y-30397000D01*
X18146139Y-31630967D02*
X18146139Y-39270796D01*
X17904839Y-1031669D02*
X17904839Y-7140221D01*
X17904839Y-9642429D02*
X17904839Y-11061473D01*
X17904839Y-18770820D02*
X17904839Y-25786112D01*
X17904839Y-30143000D02*
X17904839Y-30397000D01*
X17904839Y-31498651D02*
X17904839Y-39220869D01*
X17663539Y-891616D02*
X17663539Y-7028321D01*
X17663539Y-9530528D02*
X17663539Y-11182061D01*
X17663539Y-18816028D02*
X17663539Y-25620344D01*
X17663539Y-29177910D02*
X17663539Y-29241673D01*
X17663539Y-30143000D02*
X17663539Y-30397000D01*
X17663539Y-31298326D02*
X17663539Y-39170941D01*
X17422239Y-783664D02*
X17422239Y-6916421D01*
X17422239Y-9418628D02*
X17422239Y-11302650D01*
X17422239Y-18885264D02*
X17422239Y-25454577D01*
X17422239Y-29023172D02*
X17422239Y-29578913D01*
X17422239Y-30143000D02*
X17422239Y-30397000D01*
X17422239Y-30961086D02*
X17422239Y-39121013D01*
X17180939Y-690402D02*
X17180939Y-6804521D01*
X17180939Y-9306728D02*
X17180939Y-11408981D01*
X17180939Y-18954501D02*
X17180939Y-25288809D01*
X17180939Y-28042849D02*
X17180939Y-30626890D01*
X17180939Y-30626890D02*
X17180939Y-39057652D01*
X16939639Y-597141D02*
X16939639Y-6692621D01*
X16939639Y-9194828D02*
X16939639Y-11485309D01*
X16939639Y-19023737D02*
X16939639Y-25123041D01*
X16939639Y-27877082D02*
X16939639Y-30626890D01*
X16939639Y-30626890D02*
X16939639Y-38977428D01*
X16698339Y-511765D02*
X16698339Y-6574843D01*
X16698339Y-9082928D02*
X16698339Y-11561638D01*
X16698339Y-19092973D02*
X16698339Y-24957273D01*
X16698339Y-27711314D02*
X16698339Y-30626890D01*
X16698339Y-30626890D02*
X16698339Y-38897204D01*
X16457039Y-459896D02*
X16457039Y-6497167D01*
X16457039Y-8971028D02*
X16457039Y-11637966D01*
X16457039Y-19160208D02*
X16457039Y-24791506D01*
X16457039Y-27545546D02*
X16457039Y-30626890D01*
X16457039Y-30626890D02*
X16457039Y-38816979D01*
X16215739Y-408028D02*
X16215739Y-6473419D01*
X16215739Y-8941880D02*
X16215739Y-11684304D01*
X16215739Y-19175213D02*
X16215739Y-24625738D01*
X16215739Y-27379778D02*
X16215739Y-30626890D01*
X16215739Y-30626890D02*
X16215739Y-38736755D01*
X15974439Y-356159D02*
X15974439Y-6501169D01*
X15974439Y-9088983D02*
X15974439Y-11720596D01*
X15974439Y-19107003D02*
X15974439Y-24459970D01*
X15974439Y-27214011D02*
X15974439Y-30626890D01*
X15974439Y-30626890D02*
X15974439Y-38635565D01*
X15733139Y-324657D02*
X15733139Y-6584702D01*
X15733139Y-9236086D02*
X15733139Y-11756888D01*
X15733139Y-18922571D02*
X15733139Y-24294202D01*
X15733139Y-27048243D02*
X15733139Y-30626890D01*
X15733139Y-30626890D02*
X15733139Y-38522582D01*
X15491839Y-311457D02*
X15491839Y-6724626D01*
X15491839Y-9383190D02*
X15491839Y-11793180D01*
X15491839Y-14784080D02*
X15491839Y-24128435D01*
X15491839Y-26882475D02*
X15491839Y-30626890D01*
X15491839Y-30626890D02*
X15491839Y-38409599D01*
X15250539Y-298256D02*
X15250539Y-6871729D01*
X15250539Y-9530293D02*
X15250539Y-11816462D01*
X15250539Y-14012553D02*
X15250539Y-23962667D01*
X15250539Y-26716708D02*
X15250539Y-30626890D01*
X15250539Y-30626890D02*
X15250539Y-38296617D01*
X15009239Y-285055D02*
X15009239Y-7018832D01*
X15009239Y-9677396D02*
X15009239Y-11911047D01*
X15009239Y-13447276D02*
X15009239Y-23796899D01*
X15009239Y-26550940D02*
X15009239Y-30626890D01*
X15009239Y-30626890D02*
X15009239Y-38181596D01*
X14767939Y-301678D02*
X14767939Y-7165936D01*
X14767939Y-9824500D02*
X14767939Y-12152185D01*
X14767939Y-12933729D02*
X14767939Y-23631132D01*
X14767939Y-26385172D02*
X14767939Y-30626890D01*
X14767939Y-30626890D02*
X14767939Y-38032040D01*
X14526639Y-326481D02*
X14526639Y-7313039D01*
X14526639Y-9971603D02*
X14526639Y-23465364D01*
X14526639Y-26219404D02*
X14526639Y-30626890D01*
X14526639Y-30626890D02*
X14526639Y-37882485D01*
X14285339Y-351283D02*
X14285339Y-7460143D01*
X14285339Y-10118706D02*
X14285339Y-23299596D01*
X14285339Y-26053637D02*
X14285339Y-30626890D01*
X14285339Y-30626890D02*
X14285339Y-37732929D01*
X14044039Y-378319D02*
X14044039Y-7607246D01*
X14044039Y-10265810D02*
X14044039Y-23133828D01*
X14044039Y-25887869D02*
X14044039Y-30626890D01*
X14044039Y-30626890D02*
X14044039Y-37583374D01*
X13802739Y-442383D02*
X13802739Y-7754349D01*
X13802739Y-10412913D02*
X13802739Y-22968061D01*
X13802739Y-25722101D02*
X13802739Y-30626890D01*
X13802739Y-30626890D02*
X13802739Y-37401947D01*
X13561439Y-506446D02*
X13561439Y-7901453D01*
X13561439Y-10560016D02*
X13561439Y-22802293D01*
X13561439Y-25556333D02*
X13561439Y-30626890D01*
X13561439Y-30626890D02*
X13561439Y-37210076D01*
X13320139Y-570509D02*
X13320139Y-8048556D01*
X13320139Y-10707120D02*
X13320139Y-22636525D01*
X13320139Y-25390566D02*
X13320139Y-30626890D01*
X13320139Y-30626890D02*
X13320139Y-37018204D01*
X13078839Y-653144D02*
X13078839Y-8195659D01*
X13078839Y-10854223D02*
X13078839Y-22470758D01*
X13078839Y-25224798D02*
X13078839Y-30626890D01*
X13078839Y-30626890D02*
X13078839Y-36826333D01*
X12837539Y-759916D02*
X12837539Y-8342763D01*
X12837539Y-11001326D02*
X12837539Y-22304990D01*
X12837539Y-25059030D02*
X12837539Y-30626890D01*
X12837539Y-30626890D02*
X12837539Y-36594085D01*
X12596239Y-866687D02*
X12596239Y-8489866D01*
X12596239Y-11148430D02*
X12596239Y-22139222D01*
X12596239Y-24893262D02*
X12596239Y-30626890D01*
X12596239Y-30626890D02*
X12596239Y-36351178D01*
X12354939Y-973843D02*
X12354939Y-8636969D01*
X12354939Y-11295533D02*
X12354939Y-21973454D01*
X12354939Y-24727495D02*
X12354939Y-30626890D01*
X12354939Y-30626890D02*
X12354939Y-36108270D01*
X12113639Y-1129759D02*
X12113639Y-8784073D01*
X12113639Y-11442636D02*
X12113639Y-21807687D01*
X12113639Y-24561727D02*
X12113639Y-30626890D01*
X12113639Y-30626890D02*
X12113639Y-35850882D01*
X11872339Y-1285676D02*
X11872339Y-8931176D01*
X11872339Y-11589740D02*
X11872339Y-21641919D01*
X11872339Y-24395959D02*
X11872339Y-30626890D01*
X11872339Y-30626890D02*
X11872339Y-35543249D01*
X11631039Y-1441592D02*
X11631039Y-9078279D01*
X11631039Y-11736843D02*
X11631039Y-21476151D01*
X11631039Y-24230192D02*
X11631039Y-30626890D01*
X11631039Y-30626890D02*
X11631039Y-35235615D01*
X11389739Y-1649424D02*
X11389739Y-9225383D01*
X11389739Y-11883946D02*
X11389739Y-21310384D01*
X11389739Y-24064424D02*
X11389739Y-30626890D01*
X11389739Y-30626890D02*
X11389739Y-34919259D01*
X11148439Y-1865692D02*
X11148439Y-9372486D01*
X11148439Y-12031050D02*
X11148439Y-21144616D01*
X11148439Y-23898656D02*
X11148439Y-30626890D01*
X11148439Y-30626890D02*
X11148439Y-34524097D01*
X10907139Y-2087545D02*
X10907139Y-9519589D01*
X10907139Y-12178153D02*
X10907139Y-20978848D01*
X10907139Y-23732888D02*
X10907139Y-30626890D01*
X10907139Y-30626890D02*
X10907139Y-34128936D01*
X10665839Y-2384132D02*
X10665839Y-9666693D01*
X10665839Y-12325256D02*
X10665839Y-20813080D01*
X10665839Y-23567121D02*
X10665839Y-30626890D01*
X10665839Y-30626890D02*
X10665839Y-33674123D01*
X10424539Y-2680719D02*
X10424539Y-9813796D01*
X10424539Y-12472360D02*
X10424539Y-20647313D01*
X10424539Y-23401353D02*
X10424539Y-30626890D01*
X10424539Y-30626890D02*
X10424539Y-33149735D01*
X10183239Y-3061245D02*
X10183239Y-9960900D01*
X10183239Y-12619463D02*
X10183239Y-20481545D01*
X10183239Y-23235585D02*
X10183239Y-24812666D01*
X10183239Y-25412111D02*
X10183239Y-30626890D01*
X10183239Y-30626890D02*
X10183239Y-32550063D01*
X9941939Y-3476984D02*
X9941939Y-10108003D01*
X9941939Y-12766566D02*
X9941939Y-20315777D01*
X9941939Y-23069817D02*
X9941939Y-24512033D01*
X9941939Y-26226724D02*
X9941939Y-30626890D01*
X9941939Y-30626890D02*
X9941939Y-31807851D01*
X9700639Y-4064446D02*
X9700639Y-10255106D01*
X9700639Y-12913670D02*
X9700639Y-20150010D01*
X9700639Y-22904050D02*
X9700639Y-24398073D01*
X9700639Y-27331384D02*
X9700639Y-30626890D01*
X9700639Y-30626890D02*
X9700639Y-30703212D01*
X9459339Y-4924067D02*
X9459339Y-7204841D01*
X9459339Y-8740066D02*
X9459339Y-10402210D01*
X9459339Y-13060773D02*
X9459339Y-19984242D01*
X9459339Y-22738282D02*
X9459339Y-24374729D01*
X9218039Y-8886638D02*
X9218039Y-10549313D01*
X9218039Y-13272125D02*
X9218039Y-19706136D01*
X9218039Y-22572514D02*
X9218039Y-24402794D01*
X8976739Y-8933047D02*
X8976739Y-10696416D01*
X8976739Y-13637775D02*
X8976739Y-19334458D01*
X8976739Y-22406746D02*
X8976739Y-24431926D01*
X8735439Y-8915103D02*
X8735439Y-10843520D01*
X8735439Y-13854827D02*
X8735439Y-19122570D01*
X8735439Y-22240979D02*
X8735439Y-24461058D01*
X8494139Y-8891864D02*
X8494139Y-10990623D01*
X8494139Y-13990965D02*
X8494139Y-18985440D01*
X8494139Y-22075211D02*
X8494139Y-24490190D01*
X8252839Y-8890533D02*
X8252839Y-11137726D01*
X8252839Y-14071794D02*
X8252839Y-18901649D01*
X8252839Y-21909443D02*
X8252839Y-24510591D01*
X8011539Y-8889203D02*
X8011539Y-11244556D01*
X8011539Y-14108305D02*
X8011539Y-18861430D01*
X8011539Y-21743676D02*
X8011539Y-24506734D01*
X7770239Y-8887872D02*
X7770239Y-11248185D01*
X7770239Y-14104674D02*
X7770239Y-18861430D01*
X7770239Y-21731430D02*
X7770239Y-24502876D01*
X7528939Y-8886542D02*
X7528939Y-11292245D01*
X7528939Y-14060614D02*
X7528939Y-18908978D01*
X7528939Y-21683881D02*
X7528939Y-24499018D01*
X7287639Y-8903345D02*
X7287639Y-11381593D01*
X7287639Y-13971266D02*
X7287639Y-19000704D01*
X7287639Y-21592155D02*
X7287639Y-24495161D01*
X7046339Y-8935044D02*
X7046339Y-11528277D01*
X7046339Y-13824582D02*
X7046339Y-19147192D01*
X7046339Y-21445667D02*
X7046339Y-24463021D01*
X6805039Y-8966744D02*
X6805039Y-11759990D01*
X6805039Y-13592869D02*
X6805039Y-19371310D01*
X6805039Y-21221550D02*
X6805039Y-24426028D01*
X6563739Y-8998443D02*
X6563739Y-12168776D01*
X6563739Y-13184083D02*
X6563739Y-19795103D01*
X6563739Y-20797756D02*
X6563739Y-24389035D01*
X6322439Y-9036129D02*
X6322439Y-12676430D01*
X6322439Y-12676430D02*
X6322439Y-20155095D01*
X6322439Y-20155095D02*
X6322439Y-24352042D01*
X6081139Y-9102069D02*
X6081139Y-12676430D01*
X6081139Y-12676430D02*
X6081139Y-20155095D01*
X6081139Y-20155095D02*
X6081139Y-24298021D01*
X5839839Y-9168009D02*
X5839839Y-12676430D01*
X5839839Y-12676430D02*
X5839839Y-20155095D01*
X5839839Y-20155095D02*
X5839839Y-24226471D01*
X5598539Y-9233949D02*
X5598539Y-12676430D01*
X5598539Y-12676430D02*
X5598539Y-20155095D01*
X5598539Y-20155095D02*
X5598539Y-24154922D01*
X5357239Y-9299889D02*
X5357239Y-12676430D01*
X5357239Y-12676430D02*
X5357239Y-20155095D01*
X5357239Y-20155095D02*
X5357239Y-24083372D01*
X5115939Y-9399749D02*
X5115939Y-12676430D01*
X5115939Y-12676430D02*
X5115939Y-20155095D01*
X5115939Y-20155095D02*
X5115939Y-24001962D01*
X4874639Y-9502593D02*
X4874639Y-12676430D01*
X4874639Y-12676430D02*
X4874639Y-20155095D01*
X4874639Y-20155095D02*
X4874639Y-23892930D01*
X4633339Y-9605436D02*
X4633339Y-12676430D01*
X4633339Y-12676430D02*
X4633339Y-20155095D01*
X4633339Y-20155095D02*
X4633339Y-23783898D01*
X4392039Y-9708280D02*
X4392039Y-12676430D01*
X4392039Y-12676430D02*
X4392039Y-20155095D01*
X4392039Y-20155095D02*
X4392039Y-23674865D01*
X4150739Y-9846825D02*
X4150739Y-12676430D01*
X4150739Y-12676430D02*
X4150739Y-20155095D01*
X4150739Y-20155095D02*
X4150739Y-23555535D01*
X3909439Y-9991148D02*
X3909439Y-12676430D01*
X3909439Y-12676430D02*
X3909439Y-20155095D01*
X3909439Y-20155095D02*
X3909439Y-23404074D01*
X3668139Y-10135472D02*
X3668139Y-12676430D01*
X3668139Y-12676430D02*
X3668139Y-20155095D01*
X3668139Y-20155095D02*
X3668139Y-23252614D01*
X3426839Y-10283438D02*
X3426839Y-12676430D01*
X3426839Y-12676430D02*
X3426839Y-20155095D01*
X3426839Y-20155095D02*
X3426839Y-23101153D01*
X3185539Y-10476646D02*
X3185539Y-12676430D01*
X3185539Y-12676430D02*
X3185539Y-20155095D01*
X3185539Y-20155095D02*
X3185539Y-22924177D01*
X2944239Y-10669853D02*
X2944239Y-12676430D01*
X2944239Y-12676430D02*
X2944239Y-20155095D01*
X2944239Y-20155095D02*
X2944239Y-22722304D01*
X2702939Y-10863061D02*
X2702939Y-12676430D01*
X2702939Y-12676430D02*
X2702939Y-20155095D01*
X2702939Y-20155095D02*
X2702939Y-22520431D01*
X2461639Y-11094696D02*
X2461639Y-12676430D01*
X2461639Y-12676430D02*
X2461639Y-20155095D01*
X2461639Y-20155095D02*
X2461639Y-22310792D01*
X2220339Y-11348831D02*
X2220339Y-12676430D01*
X2220339Y-12676430D02*
X2220339Y-20155095D01*
X2220339Y-20155095D02*
X2220339Y-22045459D01*
X1979039Y-11602967D02*
X1979039Y-12676430D01*
X1979039Y-12676430D02*
X1979039Y-20155095D01*
X1979039Y-20155095D02*
X1979039Y-21780125D01*
X1737739Y-11905415D02*
X1737739Y-12676430D01*
X1737739Y-12676430D02*
X1737739Y-20155095D01*
X1737739Y-20155095D02*
X1737739Y-21501539D01*
X1496439Y-12241021D02*
X1496439Y-12676430D01*
X1496439Y-12676430D02*
X1496439Y-20155095D01*
X1496439Y-20155095D02*
X1496439Y-21150236D01*
X1255139Y-12578734D02*
X1255139Y-12676430D01*
X1255139Y-12676430D02*
X1255139Y-20155095D01*
X1255139Y-20155095D02*
X1255139Y-20798933D01*
X1013839Y-13034162D02*
X1013839Y-20155095D01*
X1013839Y-20155095D02*
X1013839Y-20363091D01*
X772539Y-13489592D02*
X772539Y-19882986D01*
X531239Y-14138667D02*
X531239Y-19250753D01*
X289939Y-14991593D02*
X289939Y-18415169D01*
D18*
X15860234Y-331611D02*
X16744310Y-521647D01*
X17587784Y-847647D01*
X18369872Y-1301581D01*
X19071318Y-1872269D01*
X19674857Y-2545665D01*
X20165617Y-3305178D01*
X20531527Y-4132122D01*
X20766113Y-5015709D01*
X20846512Y-5634104D01*
X20847491Y-5638748D01*
X20847740Y-5643106D01*
X20855713Y-5677738D01*
X20870310Y-5746956D01*
X20873682Y-5755783D01*
X20875625Y-5764222D01*
X20890644Y-5800185D01*
X20911468Y-5854697D01*
X20918554Y-5867016D01*
X20923520Y-5878907D01*
X20943799Y-5910905D01*
X20968975Y-5954673D01*
X20980908Y-5969457D01*
X20990051Y-5983884D01*
X21013719Y-6010108D01*
X21041414Y-6044422D01*
X21059127Y-6060423D01*
X21073321Y-6076150D01*
X21098490Y-6095980D01*
X21127000Y-6121734D01*
X21151169Y-6137485D01*
X21170945Y-6153066D01*
X21195889Y-6166629D01*
X21223626Y-6184705D01*
X21254640Y-6198574D01*
X21280133Y-6212435D01*
X21303338Y-6220350D01*
X21328914Y-6231787D01*
X21366900Y-6242031D01*
X21397763Y-6252558D01*
X21418005Y-6255813D01*
X21440271Y-6261817D01*
X21485137Y-6266606D01*
X21520472Y-6272287D01*
X21536847Y-6272125D01*
X21554954Y-6274058D01*
X21606549Y-6271437D01*
X21644750Y-6271060D01*
X21656745Y-6268887D01*
X21670140Y-6268207D01*
X21728821Y-6255833D01*
X21767045Y-6248910D01*
X21777336Y-6245603D01*
X21782993Y-6244410D01*
X21793296Y-6240474D01*
X21832972Y-6227724D01*
X22665393Y-5916231D01*
X23477137Y-5761148D01*
X24303408Y-5745054D01*
X25135040Y-5870589D01*
X25576544Y-5997335D01*
X25594011Y-6000783D01*
X25607946Y-6005605D01*
X25643094Y-6010473D01*
X25698476Y-6021407D01*
X25727376Y-6022147D01*
X25750036Y-6025286D01*
X25780664Y-6023513D01*
X25822719Y-6024590D01*
X25863197Y-6018734D01*
X25893243Y-6016994D01*
X25916073Y-6011084D01*
X25945724Y-6006794D01*
X25998019Y-5989870D01*
X26032112Y-5981044D01*
X26046089Y-5974313D01*
X26063971Y-5968526D01*
X26131330Y-5933263D01*
X26161353Y-5918805D01*
X26166882Y-5914652D01*
X26174079Y-5910884D01*
X26272902Y-5835513D01*
X26274462Y-5833838D01*
X26276045Y-5832649D01*
X26288345Y-5818934D01*
X26357613Y-5744569D01*
X26364636Y-5733864D01*
X26371817Y-5725857D01*
X26390078Y-5695085D01*
X26425789Y-5640652D01*
X26435251Y-5618960D01*
X26445022Y-5602495D01*
X26456141Y-5571072D01*
X26475482Y-5526734D01*
X26483910Y-5492596D01*
X26492873Y-5467265D01*
X26496771Y-5440498D01*
X26505270Y-5406072D01*
X26508760Y-5358175D01*
X26513546Y-5325315D01*
X26513956Y-5315061D01*
X26533664Y-4716571D01*
X26652928Y-4203501D01*
X26869575Y-3723370D01*
X27175356Y-3294461D01*
X27558619Y-2933117D01*
X28004773Y-2653094D01*
X28496817Y-2465064D01*
X29016011Y-2376187D01*
X29542584Y-2389848D01*
X30056471Y-2505527D01*
X30538105Y-2718817D01*
X30969137Y-3021596D01*
X31333148Y-3402326D01*
X31616278Y-3846513D01*
X31807738Y-4337230D01*
X31900239Y-4855797D01*
X31890254Y-5382445D01*
X31778165Y-5897136D01*
X31568244Y-6380242D01*
X31268483Y-6813376D01*
X30890299Y-7180041D01*
X30448105Y-7466262D01*
X29958732Y-7661145D01*
X29421541Y-7760843D01*
X29166665Y-7771302D01*
X29152246Y-7773316D01*
X29134646Y-7773316D01*
X29056137Y-7786737D01*
X29024597Y-7791142D01*
X29018997Y-7793087D01*
X29012139Y-7794259D01*
X28894912Y-7835544D01*
X28891890Y-7837226D01*
X28889088Y-7838199D01*
X28868797Y-7850080D01*
X28786316Y-7895989D01*
X28775404Y-7904763D01*
X28765300Y-7910679D01*
X28738448Y-7934477D01*
X28689458Y-7973868D01*
X28672952Y-7992526D01*
X28657947Y-8005824D01*
X28638123Y-8031894D01*
X28607106Y-8066953D01*
X28587872Y-8097977D01*
X28571119Y-8120007D01*
X28559591Y-8143591D01*
X28541616Y-8172583D01*
X28522957Y-8218537D01*
X28508124Y-8248881D01*
X28503398Y-8266705D01*
X28494858Y-8287737D01*
X28480479Y-8353143D01*
X28471360Y-8387537D01*
X28470723Y-8397524D01*
X28468173Y-8409123D01*
X28463046Y-8517867D01*
X28462228Y-8530693D01*
X28462385Y-8531881D01*
X28462320Y-8533270D01*
X28477469Y-8656628D01*
X28480432Y-8668042D01*
X28481075Y-8672896D01*
X28483695Y-8680613D01*
X28494866Y-8723653D01*
X28758446Y-9572465D01*
X28867045Y-10391723D01*
X28836056Y-11217568D01*
X28666361Y-12026392D01*
X28362819Y-12795050D01*
X27934103Y-13501580D01*
X27392473Y-14125776D01*
X26753419Y-14649786D01*
X26035208Y-15058633D01*
X25258378Y-15340624D01*
X24445139Y-15487697D01*
X23618755Y-15495644D01*
X22802836Y-15364240D01*
X22020733Y-15097244D01*
X21294788Y-14702283D01*
X20645771Y-14190659D01*
X20092241Y-13577001D01*
X19650013Y-12878843D01*
X19329215Y-12110102D01*
X19161140Y-11434359D01*
X19154163Y-11413886D01*
X19148648Y-11390097D01*
X19132333Y-11349825D01*
X19121051Y-11316717D01*
X19112678Y-11301307D01*
X19105343Y-11283201D01*
X19079702Y-11240616D01*
X19061715Y-11207513D01*
X19053446Y-11197012D01*
X19045850Y-11184396D01*
X19008962Y-11140517D01*
X18984826Y-11109865D01*
X18978047Y-11103743D01*
X18971632Y-11096113D01*
X18919623Y-11050987D01*
X18892583Y-11026570D01*
X18888490Y-11023974D01*
X18884517Y-11020527D01*
X18797160Y-10966054D01*
X18787627Y-10960008D01*
X18787135Y-10959802D01*
X18786650Y-10959500D01*
X18680442Y-10914534D01*
X18676461Y-10913545D01*
X18672955Y-10912080D01*
X18639541Y-10904376D01*
X18568508Y-10886736D01*
X18559729Y-10885976D01*
X18551847Y-10884159D01*
X18512993Y-10881931D01*
X18453602Y-10876790D01*
X18440072Y-10877749D01*
X18427765Y-10877043D01*
X18389845Y-10881308D01*
X18338556Y-10884943D01*
X18320675Y-10889089D01*
X18304260Y-10890935D01*
X18269960Y-10900847D01*
X18226201Y-10910992D01*
X18204677Y-10919712D01*
X18184860Y-10925438D01*
X18155612Y-10939588D01*
X18119305Y-10954296D01*
X17258665Y-11384395D01*
X16396496Y-11657118D01*
X15478157Y-11795238D01*
X15350505Y-11802693D01*
X15338827Y-11804302D01*
X15324606Y-11804666D01*
X15261922Y-11814895D01*
X15236249Y-11818431D01*
X15231570Y-11819848D01*
X15225929Y-11820768D01*
X15130349Y-11850112D01*
X15128000Y-11851201D01*
X15125862Y-11851848D01*
X15109369Y-11859836D01*
X15039637Y-11892156D01*
X15030374Y-11898095D01*
X15022060Y-11902122D01*
X14998325Y-11918645D01*
X14955470Y-11946123D01*
X14940465Y-11958923D01*
X14927402Y-11968017D01*
X14908299Y-11986363D01*
X14879405Y-12011012D01*
X14860112Y-12032642D01*
X14844218Y-12047906D01*
X14831342Y-12064895D01*
X14812852Y-12085625D01*
X14790864Y-12118306D01*
X14774555Y-12139826D01*
X14767431Y-12153135D01*
X14757040Y-12168580D01*
X14733697Y-12216161D01*
X14720128Y-12241511D01*
X14717382Y-12249415D01*
X14713002Y-12258343D01*
X14686623Y-12337956D01*
X14682279Y-12350459D01*
X14682043Y-12351778D01*
X14681555Y-12353250D01*
X14663278Y-12451548D01*
X14662955Y-12458315D01*
X14661939Y-12463986D01*
X14661392Y-12491077D01*
X14658512Y-12551418D01*
X14659864Y-12566667D01*
X14659609Y-12579297D01*
X14663469Y-12607320D01*
X14667343Y-12651009D01*
X14672743Y-12674651D01*
X14675347Y-12693553D01*
X14682331Y-12716623D01*
X14689608Y-12748481D01*
X14701595Y-12780258D01*
X14708764Y-12803940D01*
X14716741Y-12820411D01*
X14724896Y-12842029D01*
X14728133Y-12849012D01*
X15202154Y-13857849D01*
X15519921Y-14873869D01*
X15696857Y-15923612D01*
X15729689Y-16987644D01*
X15615799Y-18065333D01*
X15569514Y-18306632D01*
X15566996Y-18327265D01*
X15561818Y-18355642D01*
X15559951Y-18384982D01*
X15557401Y-18405878D01*
X15557630Y-18421466D01*
X15556364Y-18441368D01*
X15558514Y-18481586D01*
X15558871Y-18505850D01*
X15560322Y-18515397D01*
X15560950Y-18527145D01*
X15570888Y-18584921D01*
X15573893Y-18604698D01*
X15574843Y-18607916D01*
X15575511Y-18611802D01*
X15599850Y-18694181D01*
X15601302Y-18697575D01*
X15602192Y-18700591D01*
X15610189Y-18718351D01*
X15633635Y-18773158D01*
X15639362Y-18783135D01*
X15643245Y-18791757D01*
X15656135Y-18812352D01*
X15676401Y-18847655D01*
X15688123Y-18863462D01*
X15696289Y-18876509D01*
X15709862Y-18892776D01*
X15727569Y-18916653D01*
X15747123Y-18937432D01*
X15760344Y-18953277D01*
X15772247Y-18964130D01*
X15786437Y-18979209D01*
X15816382Y-19004372D01*
X15834226Y-19020642D01*
X15842643Y-19026440D01*
X15852201Y-19034471D01*
X15899115Y-19065335D01*
X15916567Y-19077356D01*
X15920073Y-19079124D01*
X15923963Y-19081683D01*
X16000744Y-19120199D01*
X16003572Y-19121225D01*
X16005843Y-19122370D01*
X16022513Y-19128096D01*
X16081494Y-19149494D01*
X16091993Y-19151964D01*
X16100402Y-19154853D01*
X16124333Y-19159574D01*
X16165111Y-19169168D01*
X16183886Y-19171320D01*
X16198494Y-19174202D01*
X16220052Y-19175467D01*
X16250451Y-19178952D01*
X16278141Y-19178875D01*
X16298305Y-19180058D01*
X16314850Y-19178773D01*
X16336351Y-19178713D01*
X16374118Y-19174169D01*
X16397987Y-19172315D01*
X16408516Y-19170031D01*
X16421636Y-19168452D01*
X16494069Y-19151584D01*
X17709490Y-18802843D01*
X18914845Y-18605247D01*
X20135021Y-18549631D01*
X21353345Y-18636752D01*
X22553195Y-18865424D01*
X23718166Y-19232519D01*
X24832356Y-19733027D01*
X25880533Y-20360105D01*
X26848395Y-21105195D01*
X27722724Y-21958127D01*
X28491564Y-22907234D01*
X29144414Y-23939551D01*
X29672372Y-25040999D01*
X30068215Y-26196520D01*
X30326540Y-27390334D01*
X30443817Y-28606133D01*
X30418447Y-29827302D01*
X30250772Y-31037185D01*
X29943086Y-32219237D01*
X29499587Y-33357325D01*
X28926344Y-34435884D01*
X28231175Y-35440202D01*
X27423572Y-36356564D01*
X26514582Y-37172434D01*
X25516608Y-37876682D01*
X24443278Y-38459689D01*
X23309276Y-38913483D01*
X22130055Y-39231878D01*
X20921749Y-39410516D01*
X19700849Y-39446959D01*
X18484038Y-39340711D01*
X17287932Y-39093223D01*
X16128874Y-38707875D01*
X15022685Y-38189929D01*
X13984481Y-37546460D01*
X13028441Y-36786258D01*
X12167626Y-35919709D01*
X11413788Y-34958642D01*
X10777224Y-33916182D01*
X10266638Y-32806588D01*
X9888990Y-31644985D01*
X9685375Y-30626890D01*
X17288524Y-30626890D01*
X17333175Y-30774099D01*
X17458359Y-31036920D01*
X17632412Y-31270269D01*
X17848645Y-31465178D01*
X18098748Y-31614157D01*
X18373109Y-31711481D01*
X18603000Y-31590814D01*
X18603000Y-30397000D01*
X17409845Y-30397000D01*
X17288524Y-30626890D01*
X9685375Y-30626890D01*
X9649450Y-30447266D01*
X9551284Y-29229781D01*
X9595834Y-28009148D01*
X9782491Y-26802054D01*
X10113154Y-25608934D01*
X10203836Y-25354267D01*
X10227464Y-25273197D01*
X10227826Y-25272000D01*
X10227841Y-25271903D01*
X10227872Y-25271798D01*
X10242124Y-25187089D01*
X10242501Y-25179509D01*
X10243494Y-25173253D01*
X10244001Y-25149388D01*
X10246395Y-25101296D01*
X10245352Y-25085792D01*
X10245617Y-25073293D01*
X10242963Y-25050297D01*
X10240627Y-25015590D01*
X10236235Y-24992008D01*
X10234153Y-24973970D01*
X10229487Y-24955777D01*
X10224899Y-24931142D01*
X10214961Y-24899138D01*
X10209315Y-24877122D01*
X10204325Y-24864885D01*
X10199426Y-24849107D01*
X10180715Y-24806983D01*
X10171564Y-24784540D01*
X10168012Y-24778384D01*
X10164556Y-24770603D01*
X10125282Y-24704326D01*
X10121597Y-24697939D01*
X10121174Y-24697394D01*
X10120765Y-24696703D01*
X10068650Y-24628418D01*
X10063878Y-24623485D01*
X10060339Y-24618920D01*
X10043520Y-24602441D01*
X10008925Y-24566679D01*
X9997467Y-24557317D01*
X9988923Y-24548946D01*
X9970112Y-24534967D01*
X9942405Y-24512330D01*
X9922861Y-24499855D01*
X9908673Y-24489312D01*
X9891807Y-24480034D01*
X9869998Y-24466113D01*
X9840695Y-24451915D01*
X9821071Y-24441120D01*
X9808235Y-24436188D01*
X9792694Y-24428659D01*
X9750482Y-24414001D01*
X9727738Y-24405263D01*
X9720265Y-24403508D01*
X9711548Y-24400481D01*
X9641871Y-24385098D01*
X9630404Y-24382405D01*
X9629124Y-24382284D01*
X9627667Y-24381962D01*
X9542200Y-24373356D01*
X9536038Y-24373458D01*
X9530868Y-24372968D01*
X9507882Y-24373925D01*
X9456312Y-24374780D01*
X9442374Y-24376652D01*
X9430972Y-24377127D01*
X9423326Y-24378010D01*
X8316708Y-24511612D01*
X7252296Y-24494595D01*
X6200042Y-24333277D01*
X5179419Y-24030645D01*
X4209307Y-23592297D01*
X3307666Y-23026349D01*
X2491169Y-22343263D01*
X1774937Y-21555694D01*
X1172213Y-20678202D01*
X909301Y-20155095D01*
X6474315Y-20155095D01*
X6474315Y-20437765D01*
X6529462Y-20715004D01*
X6637635Y-20976157D01*
X6794678Y-21211189D01*
X6994556Y-21411067D01*
X7229588Y-21568110D01*
X7490741Y-21676283D01*
X7767980Y-21731430D01*
X7993713Y-21731430D01*
X17241928Y-28084748D01*
X17241928Y-28580000D01*
X17254188Y-28704482D01*
X17290498Y-28824180D01*
X17349463Y-28934494D01*
X17428815Y-29031185D01*
X17525506Y-29110537D01*
X17635820Y-29169502D01*
X17716466Y-29193966D01*
X17632412Y-29269731D01*
X17458359Y-29503080D01*
X17333175Y-29765901D01*
X17288524Y-29913110D01*
X17409845Y-30143000D01*
X18603000Y-30143000D01*
X18603000Y-30123000D01*
X18857000Y-30123000D01*
X18857000Y-30143000D01*
X18877000Y-30143000D01*
X18877000Y-30397000D01*
X18857000Y-30397000D01*
X18857000Y-31590814D01*
X19086891Y-31711481D01*
X19361252Y-31614157D01*
X19611355Y-31465178D01*
X19827588Y-31270269D01*
X19998416Y-31041244D01*
X20029294Y-31099014D01*
X20214866Y-31325134D01*
X20440986Y-31510706D01*
X20698966Y-31648599D01*
X20978889Y-31733513D01*
X21197050Y-31755000D01*
X21342950Y-31755000D01*
X21561111Y-31733513D01*
X21841034Y-31648599D01*
X22099014Y-31510706D01*
X22325134Y-31325134D01*
X22510706Y-31099014D01*
X22648599Y-30841034D01*
X22733513Y-30561111D01*
X22762185Y-30270000D01*
X22733513Y-29978889D01*
X22648599Y-29698966D01*
X22510706Y-29440986D01*
X22325134Y-29214866D01*
X22099014Y-29029294D01*
X22044209Y-29000000D01*
X22099014Y-28970706D01*
X22325134Y-28785134D01*
X22510706Y-28559014D01*
X22648599Y-28301034D01*
X22733513Y-28021111D01*
X22762185Y-27730000D01*
X22733513Y-27438889D01*
X22648599Y-27158966D01*
X22510706Y-26900986D01*
X22325134Y-26674866D01*
X22099014Y-26489294D01*
X21841034Y-26351401D01*
X21561111Y-26266487D01*
X21342950Y-26245000D01*
X21197050Y-26245000D01*
X20978889Y-26266487D01*
X20698966Y-26351401D01*
X20440986Y-26489294D01*
X20214866Y-26674866D01*
X20190393Y-26704687D01*
X20169502Y-26635820D01*
X20110537Y-26525506D01*
X20031185Y-26428815D01*
X19934494Y-26349463D01*
X19824180Y-26290498D01*
X19704482Y-26254188D01*
X19580000Y-26241928D01*
X18568349Y-26241928D01*
X9283078Y-19863154D01*
X9180995Y-19616703D01*
X9023952Y-19381671D01*
X8824074Y-19181793D01*
X8589042Y-19024750D01*
X8327889Y-18916577D01*
X8050650Y-18861430D01*
X7767980Y-18861430D01*
X7490741Y-18916577D01*
X7229588Y-19024750D01*
X6994556Y-19181793D01*
X6794678Y-19381671D01*
X6637635Y-19616703D01*
X6529462Y-19877856D01*
X6474315Y-20155095D01*
X909301Y-20155095D01*
X694160Y-19727038D01*
X349615Y-18719790D01*
X144957Y-17675095D01*
X83973Y-16612298D01*
X167792Y-15551059D01*
X394864Y-14511008D01*
X760984Y-13511400D01*
X1203376Y-12676430D01*
X6467372Y-12676430D01*
X6495079Y-12957739D01*
X6577133Y-13228238D01*
X6710383Y-13477531D01*
X6889707Y-13696038D01*
X7108214Y-13875362D01*
X7357507Y-14008612D01*
X7628006Y-14090666D01*
X7838823Y-14111430D01*
X7979807Y-14111430D01*
X8190624Y-14090666D01*
X8461123Y-14008612D01*
X8710416Y-13875362D01*
X8928923Y-13696038D01*
X9108247Y-13477531D01*
X9241497Y-13228238D01*
X9254397Y-13185711D01*
X16292834Y-8894880D01*
X21300053Y-11216921D01*
X21354816Y-11349131D01*
X21522803Y-11600541D01*
X21736610Y-11814348D01*
X21988020Y-11982335D01*
X22267372Y-12098047D01*
X22563931Y-12157036D01*
X22866299Y-12157036D01*
X23162858Y-12098047D01*
X23442210Y-11982335D01*
X23693620Y-11814348D01*
X23760976Y-11746992D01*
X23792385Y-11822821D01*
X23861878Y-11926825D01*
X23950326Y-12015273D01*
X24054330Y-12084766D01*
X24169892Y-12132633D01*
X24292573Y-12157036D01*
X24969365Y-12157036D01*
X25128115Y-11998286D01*
X25128115Y-10749036D01*
X25382115Y-10749036D01*
X25382115Y-11998286D01*
X25540865Y-12157036D01*
X26217657Y-12157036D01*
X26340338Y-12132633D01*
X26455900Y-12084766D01*
X26559904Y-12015273D01*
X26648352Y-11926825D01*
X26717845Y-11822821D01*
X26765712Y-11707259D01*
X26790115Y-11584578D01*
X26790115Y-10907786D01*
X26631365Y-10749036D01*
X25382115Y-10749036D01*
X25128115Y-10749036D01*
X25108115Y-10749036D01*
X25108115Y-10495036D01*
X25128115Y-10495036D01*
X25128115Y-9245786D01*
X25382115Y-9245786D01*
X25382115Y-10495036D01*
X26631365Y-10495036D01*
X26790115Y-10336286D01*
X26790115Y-9659494D01*
X26765712Y-9536813D01*
X26717845Y-9421251D01*
X26648352Y-9317247D01*
X26559904Y-9228799D01*
X26455900Y-9159306D01*
X26340338Y-9111439D01*
X26217657Y-9087036D01*
X25540865Y-9087036D01*
X25382115Y-9245786D01*
X25128115Y-9245786D01*
X24969365Y-9087036D01*
X24292573Y-9087036D01*
X24169892Y-9111439D01*
X24054330Y-9159306D01*
X23950326Y-9228799D01*
X23861878Y-9317247D01*
X23792385Y-9421251D01*
X23760976Y-9497080D01*
X23693620Y-9429724D01*
X23442210Y-9261737D01*
X23162858Y-9146025D01*
X22866299Y-9087036D01*
X22563931Y-9087036D01*
X22267372Y-9146025D01*
X22247701Y-9154173D01*
X16748102Y-6603797D01*
X16699868Y-6575377D01*
X16646952Y-6556890D01*
X16646919Y-6556875D01*
X16590280Y-6537091D01*
X16488802Y-6501639D01*
X16488770Y-6501634D01*
X16488737Y-6501623D01*
X16382446Y-6486678D01*
X16267407Y-6470495D01*
X16267369Y-6470497D01*
X16267340Y-6470493D01*
X16161032Y-6476522D01*
X16044189Y-6483142D01*
X16044157Y-6483150D01*
X16044125Y-6483152D01*
X15941316Y-6509733D01*
X15827728Y-6539093D01*
X15827696Y-6539109D01*
X15827667Y-6539116D01*
X15738525Y-6582105D01*
X15676804Y-6611866D01*
X15676769Y-6611887D01*
X15626286Y-6636233D01*
X15581576Y-6669920D01*
X8068415Y-11250157D01*
X7979807Y-11241430D01*
X7838823Y-11241430D01*
X7628006Y-11262194D01*
X7357507Y-11344248D01*
X7108214Y-11477498D01*
X6889707Y-11656822D01*
X6710383Y-11875329D01*
X6577133Y-12124622D01*
X6495079Y-12395121D01*
X6467372Y-12676430D01*
X1203376Y-12676430D01*
X1259381Y-12570727D01*
X1880832Y-11706397D01*
X2613828Y-10934411D01*
X3444819Y-10269041D01*
X4358422Y-9722607D01*
X5337732Y-9305219D01*
X6364625Y-9024600D01*
X7420107Y-8885942D01*
X8500559Y-8891900D01*
X8890559Y-8930427D01*
X8908322Y-8930967D01*
X8922666Y-8932889D01*
X8950024Y-8932235D01*
X8990495Y-8933466D01*
X9017216Y-8930630D01*
X9037967Y-8930134D01*
X9060181Y-8926069D01*
X9089920Y-8922913D01*
X9125774Y-8914068D01*
X9151418Y-8909376D01*
X9167004Y-8903897D01*
X9186992Y-8898966D01*
X9232975Y-8880706D01*
X9260226Y-8871126D01*
X9268918Y-8866432D01*
X9279916Y-8862065D01*
X9343174Y-8826335D01*
X9361710Y-8816326D01*
X9364025Y-8814558D01*
X9366971Y-8812894D01*
X9446549Y-8752364D01*
X9450028Y-8748877D01*
X9453372Y-8746324D01*
X9470358Y-8728507D01*
X9517175Y-8681594D01*
X9525272Y-8670904D01*
X9532955Y-8662845D01*
X9549278Y-8639211D01*
X9577544Y-8601894D01*
X9588443Y-8582504D01*
X9598499Y-8567945D01*
X9609405Y-8545215D01*
X9626537Y-8514737D01*
X9638185Y-8485230D01*
X9648390Y-8463960D01*
X9654016Y-8445126D01*
X9663248Y-8421739D01*
X9673388Y-8380274D01*
X9681401Y-8353450D01*
X9683162Y-8340309D01*
X9686999Y-8324618D01*
X9693035Y-8266624D01*
X9696718Y-8239136D01*
X9696564Y-8232711D01*
X9697349Y-8225173D01*
X9694106Y-8125243D01*
X9693979Y-8124496D01*
X9693963Y-8123834D01*
X9692578Y-8116265D01*
X9677332Y-8026678D01*
X9674593Y-8017969D01*
X9673205Y-8010383D01*
X9426321Y-7080476D01*
X9333861Y-6180939D01*
X9383258Y-5278007D01*
X9573294Y-4393931D01*
X9899294Y-3550457D01*
X10353228Y-2768369D01*
X10923916Y-2066923D01*
X11597312Y-1463384D01*
X12356825Y-972624D01*
X13183769Y-606714D01*
X14057767Y-374674D01*
X14957302Y-282214D01*
X15860234Y-331611D01*
G04 #@! TD*
M02*
